<svg xmlns="http://www.w3.org/2000/svg" xmlns:xlink="http://www.w3.org/1999/xlink" width="500" zoomAndPan="magnify" viewBox="0 0 375 374.999991" height="500" preserveAspectRatio="xMidYMid meet" version="1.2"><defs><clipPath id="bcea2d6ecd"><path d="M 8.578125 4.289062 L 375 4.289062 L 375 242 L 8.578125 242 Z M 8.578125 4.289062 "/></clipPath></defs><g id="17d13b268f"><rect x="0" width="375" y="0" height="374.999991" style="fill:#ffffff;fill-opacity:1;stroke:none;"/><rect x="0" width="375" y="0" height="374.999991" style="fill:#f1f2ed;fill-opacity:1;stroke:none;"/><g clip-rule="nonzero" clip-path="url(#bcea2d6ecd)"><path style=" stroke:none;fill-rule:evenodd;fill:#1f406e;fill-opacity:1;" d="M 191.785156 4.269531 C 292.683594 4.269531 374.992188 86.566406 374.992188 187.472656 C 374.992188 198.773438 373.933594 209.839844 371.949219 220.582031 C 361.949219 214.640625 351.703125 209.988281 340.378906 209.988281 C 324.875 209.988281 311.101562 218.828125 297.339844 227.652344 C 286.320312 234.734375 275.277344 241.828125 266.089844 241.828125 C 262.824219 241.828125 259.289062 240.96875 255.585938 239.507812 C 254.824219 199.015625 246.707031 158.066406 231.921875 125.964844 C 227.636719 116.664062 222.769531 108.019531 217.347656 100.308594 C 214.433594 96.15625 211.339844 92.242188 208.074219 88.625 C 202.835938 82.8125 197.339844 78.273438 191.542969 73.308594 C 186 78.273438 180.398438 83.140625 175.476562 88.753906 C 147.78125 120.226562 131.550781 172.652344 128.386719 226.042969 C 128.117188 230.480469 127.957031 234.972656 127.878906 239.453125 C 124.203125 240.929688 120.703125 241.828125 117.511719 241.828125 L 117.46875 241.828125 C 108.09375 241.828125 95.515625 234.089844 83.410156 226.660156 C 69.644531 218.195312 56.3125 210 43.234375 209.988281 L 43.195312 209.988281 C 32.53125 209.988281 22.378906 215.273438 11.835938 221.777344 C 9.703125 210.660156 8.585938 199.191406 8.585938 187.472656 C 8.582031 86.566406 90.886719 4.269531 191.785156 4.269531 M 38.492188 142.039062 C 38.648438 141.863281 38.957031 141.507812 39.359375 141.039062 C 41.046875 139.113281 42.765625 137.398438 44.46875 135.941406 C 46.226562 134.433594 48.101562 133.085938 50.058594 131.945312 C 58.703125 126.882812 68.140625 126.164062 77.78125 130.945312 C 79.414062 128.765625 81.457031 126.679688 83.738281 124.851562 C 100.625 115.84375 110.160156 124.074219 113.671875 126.171875 C 104.460938 126.414062 91.519531 130.34375 85.644531 137.996094 C 85.066406 138.746094 87.226562 140.074219 86.769531 141.011719 C 86.019531 142.5625 86.488281 144.855469 85.785156 146.800781 C 82.515625 144.613281 80.894531 142.882812 76.859375 143.050781 C 73.941406 143.179688 70.339844 143.621094 69.375 143.226562 C 65.996094 141.84375 65.308594 137.894531 60.964844 138.53125 C 52.273438 139.804688 48.117188 145.789062 38.492188 142.039062 Z M 86.347656 93.773438 C 86.492188 93.667969 86.761719 93.4375 87.132812 93.171875 C 88.644531 91.992188 90.164062 90.984375 91.617188 90.152344 C 93.125 89.308594 94.710938 88.589844 96.296875 88.042969 C 103.386719 85.574219 110.414062 86.414062 116.800781 91.320312 C 118.308594 89.945312 120.125 88.710938 122.054688 87.699219 C 135.75 83.53125 141.566406 90.953125 143.839844 93 C 137.050781 91.84375 126.964844 92.859375 121.546875 97.625 C 121.015625 98.09375 122.40625 99.382812 121.941406 100.007812 C 121.171875 101.03125 121.183594 102.78125 120.378906 104.109375 C 118.300781 102.03125 117.363281 100.53125 114.371094 100.066406 C 112.210938 99.738281 109.496094 99.542969 108.851562 99.113281 C 106.566406 97.613281 106.632812 94.613281 103.359375 94.453125 C 96.789062 94.125 92.871094 97.914062 86.347656 93.773438 Z M 86.347656 93.773438 "/></g><path style=" stroke:none;fill-rule:evenodd;fill:#1f406e;fill-opacity:1;" d="M 195.660156 264.226562 C 196.042969 229.140625 194.65625 186.734375 191.773438 175.570312 C 188.875 186.734375 187.5 229.140625 187.875 264.226562 C 175.4375 265.5 163.554688 272.554688 151.65625 280.027344 C 150.851562 273.253906 150.289062 266.265625 149.964844 259.074219 C 149.511719 248.613281 149.589844 237.953125 150.222656 227.316406 C 153.132812 178.257812 167.503906 130.671875 191.851562 103.210938 C 194.5 106.160156 197.082031 109.375 199.523438 112.847656 C 204.15625 119.453125 208.375 126.941406 212.125 135.085938 C 230.667969 175.355469 237.789062 230.898438 231.898438 280.148438 C 220.003906 272.648438 208.234375 265.488281 195.660156 264.226562 "/><path style=" stroke:none;fill-rule:evenodd;fill:#1f406e;fill-opacity:1;" d="M 366.398438 242.820312 C 363.726562 251.203125 360.46875 259.316406 356.671875 267.136719 C 351.359375 265.191406 345.957031 264.011719 340.378906 264.011719 C 324.875 264.011719 311.097656 272.851562 297.339844 281.6875 C 286.320312 288.769531 275.277344 295.851562 266.085938 295.851562 C 261.851562 295.851562 257.140625 294.335938 252.242188 292.042969 C 253.730469 282.359375 254.707031 272.40625 255.222656 262.308594 C 258.773438 263.191406 262.398438 263.664062 266.085938 263.664062 C 281.59375 263.664062 295.367188 254.824219 309.125 246 C 320.144531 238.917969 331.1875 231.820312 340.378906 231.820312 C 348.117188 231.820312 357.128906 236.945312 366.398438 242.820312 M 345.722656 286.554688 C 335.253906 302.746094 322.296875 317.203125 307.410156 329.367188 C 304.039062 331.394531 300.691406 333.550781 297.339844 335.699219 C 286.320312 342.78125 275.277344 349.859375 266.089844 349.859375 C 256.695312 349.859375 245.140625 342.539062 233.757812 335.324219 C 220.039062 326.644531 206.484375 318.046875 191.8125 318.035156 L 191.78125 318.035156 C 177.085938 318.035156 163.257812 326.726562 149.351562 335.484375 C 137.992188 342.644531 126.523438 349.847656 117.511719 349.859375 L 117.46875 349.859375 C 108.09375 349.859375 95.515625 342.136719 83.410156 334.703125 C 82.664062 334.25 81.929688 333.765625 81.175781 333.3125 C 64.257812 320.449219 49.632812 304.703125 38.03125 286.824219 C 39.914062 286.207031 41.632812 285.859375 43.195312 285.859375 L 43.234375 285.859375 C 50.140625 285.871094 60.886719 292.46875 71.976562 299.285156 C 86.675781 308.308594 101.933594 317.683594 117.46875 317.683594 L 117.511719 317.683594 C 132.71875 317.671875 146.898438 308.738281 160.957031 299.886719 C 172.136719 292.847656 183.257812 285.859375 191.78125 285.859375 L 191.8125 285.859375 C 200.175781 285.859375 211.058594 292.75 222.070312 299.726562 C 236.125 308.644531 250.398438 317.683594 266.089844 317.683594 C 281.59375 317.683594 295.367188 308.847656 309.128906 300.019531 C 320.144531 292.9375 331.183594 285.859375 340.378906 285.859375 C 342.121094 285.859375 343.890625 286.101562 345.722656 286.554688 Z M 239.761719 364.238281 C 224.457031 368.421875 208.382812 370.675781 191.785156 370.675781 C 175.101562 370.675781 158.953125 368.410156 143.574219 364.1875 C 149.429688 361.152344 155.199219 357.53125 160.957031 353.910156 C 172.136719 346.871094 183.253906 339.882812 191.777344 339.882812 L 191.8125 339.882812 C 200.171875 339.882812 211.058594 346.777344 222.070312 353.75 C 227.902344 357.453125 233.765625 361.152344 239.761719 364.238281 Z M 27.140625 267.605469 C 23.425781 260.015625 20.210938 252.128906 17.5625 244 C 27.542969 237.65625 36.835938 231.820312 43.195312 231.820312 L 43.234375 231.820312 C 50.15625 231.835938 60.882812 238.433594 71.976562 245.261719 C 86.675781 254.285156 101.9375 263.660156 117.46875 263.660156 L 117.511719 263.660156 C 121.144531 263.660156 124.71875 263.179688 128.238281 262.28125 C 128.757812 272.113281 129.78125 282.035156 131.296875 291.933594 C 126.347656 294.296875 121.667969 295.835938 117.511719 295.851562 L 117.46875 295.851562 C 108.09375 295.851562 95.515625 288.125 83.410156 280.683594 C 69.644531 272.21875 56.324219 264.039062 43.234375 264.011719 L 43.195312 264.011719 C 37.75 264.011719 32.445312 265.390625 27.140625 267.605469 Z M 27.140625 267.605469 "/></g></svg>